<svg xmlns="http://www.w3.org/2000/svg" viewBox="0 0 1200 1200"><defs><style>.a{fill:#d12250;}.b{fill:none;}</style></defs><path class="a" d="M180.2,784.45H129.3v27.91h45V838.3h-45v30.26h50.9v26.93H95.69v-138H180.2Z"/><path class="a" d="M235.62,757.52v112h44v25.94H202v-138Z"/><path d="M421.94,784.45H371v27.91h45V838.3H371v30.26h50.91v26.93H337.43v-138h84.51Z"/><path d="M493.67,896.86c-29.68,0-52.87-14.74-53.85-42.64h35.77c1,10.61,7.66,15.72,17.1,15.72,9.83,0,16.11-4.91,16.11-13,0-25.55-69-11.79-68.59-60.73,0-26.14,21.43-40.68,50.32-40.68,30.06,0,50.31,14.93,51.68,41.27H505.86c-.59-8.84-6.88-14.15-15.92-14.35-8.06-.19-14.15,3.93-14.15,12.58,0,24,68.19,13.17,68.19,59.35C544,877.6,525.9,896.86,493.67,896.86Z"/><path d="M557.15,757.52H663.87v26.93H627.32v111H593.71v-111H557.15Z"/><path d="M766.66,871.12H715.17l-8.26,24.37H671.73l49.92-138h38.92l49.92,138H774.91Zm-25.75-76.45L724,845.18h34Z"/><path d="M949.63,826.51c0,40.87-28.3,69-72.32,69H825.62v-138h51.69C921.33,757.52,949.63,785.43,949.63,826.51ZM875.15,866.4c25.35,0,40.29-14.54,40.29-39.89s-14.94-40.29-40.29-40.29H859.23V866.4Z"/><path d="M1033.76,896.86c-39.11,0-71-29.28-71-70.75s31.84-70.55,71-70.55c39.3,0,70.55,29.09,70.55,70.55S1072.87,896.86,1033.76,896.86Zm0-30.65c22,0,36.35-15.92,36.35-40.1,0-24.56-14.34-40.09-36.35-40.09-22.41,0-36.56,15.53-36.56,40.09C997.2,850.29,1011.35,866.21,1033.76,866.21Z"/><polygon class="b" points="553.11 534.5 565.4 534.5 606.51 534.5 659.17 534.5 659.17 471.44 606.51 471.44 553.11 471.44 553.11 534.5"/><polygon points="606.51 417.39 606.51 471.44 659.17 471.44 659.17 534.5 606.51 534.5 606.51 590.6 659.17 590.6 659.17 648.75 553.11 648.75 553.11 704.85 729.2 704.85 729.2 417.39 606.51 417.39"/><polygon class="a" points="553.12 359.24 553.12 417.38 606.51 417.38 606.51 471.44 553.12 471.44 553.12 534.5 606.51 534.5 606.51 590.6 483.09 590.6 483.09 303.14 659.16 303.14 659.16 359.24 553.12 359.24"/></svg>