<svg xmlns="http://www.w3.org/2000/svg" viewBox="0 0 1200 1200"><defs><style>.a{fill:#e22432;}</style></defs><path class="a" d="M1076.52,463.63q-27.8-43.29-79.82-66.57T873.58,373.8H686.82L497.45,614.22,399.22,373.8H196.15L190.69,398h79.59l-15.63,78.16h60.14l-4.12,24.22H249.81l-15.64,78.17H102l-6.3,24.23H229.33L197.24,763.24h-52l-4.7,24.23h51.87l-7.74,38.73h139l40.72-203.58,69.79,162.87h67.23L725.62,492.71H856.13q45.89,0,70.13,21.33t24.23,60.76q0,58.16-32.64,95.32T826.4,707.29H741.64l39.86-202.2L593.43,751.33,583.58,802l-4.71,24.22H821.23q82.07,0,146.39-32t100.5-91.12q36.18-59.15,36.19-137.34Q1104.31,506.93,1076.52,463.63Z"/></svg>